<?xml version="1.0" ?><svg viewBox="0 0 32 32" xmlns="http://www.w3.org/2000/svg"><defs><style>.cls-1{fill:none;stroke:#9af680;stroke-linecap:round;stroke-linejoin:round;stroke-width:2px;}</style></defs><title/><g id="Tango"><circle class="cls-1" cx="16.01" cy="15.7" r="2"/><circle class="cls-1" cx="19.01" cy="21.7" r="2"/><circle class="cls-1" cx="13.01" cy="21.7" r="2"/><path class="cls-1" d="M10,14.22c-2.14-.24-4.28-1.38-7-2.3C4.4,16.17,1.58,21,5.11,24.53c2.83,2.83,5.66,1.41,5.66,1.41"/><path class="cls-1" d="M22,14.22c2.14-.24,4.25-1.38,7-2.29C27.6,16.17,30.42,21,26.89,24.53c-2.83,2.83-5.66,1.41-5.66,1.41"/><path class="cls-1" d="M21.71,16.7a6.47,6.47,0,0,0,.3-2c0-5-4-5-6-9-2,4-6,4-6,9a6.47,6.47,0,0,0,.3,2"/></g></svg>